<?xml version="1.0" standalone="no"?><!DOCTYPE svg PUBLIC "-//W3C//DTD SVG 1.1//EN" "http://www.w3.org/Graphics/SVG/1.1/DTD/svg11.dtd"><svg t="1503210310229" class="icon" style="" viewBox="0 0 1024 1024" version="1.1" xmlns="http://www.w3.org/2000/svg" p-id="10284" xmlns:xlink="http://www.w3.org/1999/xlink" width="200" height="200"><defs><style type="text/css"></style></defs><path d="M511.5 958.9C264 958.9 63.3 758.4 63.3 511.1 63.3 263.7 264 63.2 511.5 63.2S959.7 263.7 959.7 511c-0.1 247.4-200.7 447.9-448.2 447.9z m0-839.7c-216.6 0-392.1 175.4-392.1 391.9C119.4 727.5 295 903 511.5 903c216.6 0 392.1-175.4 392.1-391.9 0-216.5-175.5-391.9-392.1-391.9zM765.1 375c8.5-14.8 3.5-33.7-11.3-42.2s-33.7-3.5-42.2 11.3l-256 306.2-110.5-101.9c-11.7-12.4-31.2-13.1-43.7-1.4-12.5 11.7-13.1 31.2-1.4 43.6l141.3 130.2c11.7 12.4 31.2 13.1 43.7 1.4 3.7-3.5 280.1-347.2 280.1-347.2z" fill="#686868" p-id="10285"></path></svg>